<?xml version="1.0" encoding="utf-8"?>
<!-- Generator: Adobe Illustrator 24.1.0, SVG Export Plug-In . SVG Version: 6.00 Build 0)  -->
<svg version="1.1" id="Слой_1" xmlns="http://www.w3.org/2000/svg" xmlns:xlink="http://www.w3.org/1999/xlink" x="0px" y="0px"
	 viewBox="0 0 22 25" style="enable-background:new 0 0 22 25;" xml:space="preserve">
<style type="text/css">
	.st0{opacity:0.5;fill:url(#SVGID_1_);enable-background:new    ;}
	.st1{fill:url(#SVGID_2_);}
</style>
<linearGradient id="SVGID_1_" gradientUnits="userSpaceOnUse" x1="11.0191" y1="4" x2="11.0191" y2="-5" gradientTransform="matrix(1 0 0 -1 0 20)">
	<stop  offset="0" style="stop-color:#F66200"/>
	<stop  offset="1" style="stop-color:#FF971C"/>
</linearGradient>
<path class="st0" d="M2.9,16.6C3.1,16.2,3.4,16,3.8,16h14.4c0.4,0,0.8,0.2,0.9,0.6l2.8,7c0.3,0.7-0.2,1.4-0.9,1.4H1
	c-0.7,0-1.2-0.7-0.9-1.4L2.9,16.6z"/>
<linearGradient id="SVGID_2_" gradientUnits="userSpaceOnUse" x1="11.0191" y1="20" x2="11.0191" y2="-1" gradientTransform="matrix(1 0 0 -1 0 20)">
	<stop  offset="0" style="stop-color:#F66200"/>
	<stop  offset="1" style="stop-color:#FF971C"/>
</linearGradient>
<path class="st1" d="M11,0C6.9,0,3.5,3.3,3.5,7.4c0,4.4,4.9,10.6,6.8,12.8c0.4,0.4,1,0.4,1.4,0c1.9-2.2,6.8-8.4,6.8-12.8
	C18.5,3.3,15.2,0,11,0z M11,10.7c-1.8,0-3.3-1.5-3.3-3.3c0-1.8,1.5-3.3,3.3-3.3c1.8,0,3.3,1.5,3.3,3.3C14.3,9.2,12.8,10.7,11,10.7z"
	/>
</svg>
